<?xml version="1.0" encoding="utf-8"?>
<!-- Generator: Adobe Illustrator 18.1.0, SVG Export Plug-In . SVG Version: 6.00 Build 0)  -->
<svg version="1.1" id="Layer_1" xmlns="http://www.w3.org/2000/svg" xmlns:xlink="http://www.w3.org/1999/xlink" x="0px" y="0px"
	 viewBox="0 0 192 119.8" enable-background="new 0 0 192 119.8" xml:space="preserve">
<g>
	<g enable-background="new    ">
		<path fill="#444445" d="M6.7,119.1c-3.2,0-6.7-2.1-6.7-6.7c0-8.6,3-21,5.1-33.5c-0.7-0.9-0.9-2.1-0.9-3.2c0-2.1,0.9-3.9,2.8-5.6
			c4.2-20.6,9.7-43.7,16.2-65.7c0.9-3,3.5-4.4,6.5-4.4c3.9,0,8.3,2.8,8.3,6.9S26.8,47.4,22.2,69.6c0.9,0.2,1.4,0.7,2.1,1.2
			c18-23.6,24.7-37.2,37.9-68C63.1,0.9,64.5,0,66.1,0c3.9,0,8.6,3.9,8.6,8.1c0,5.6-20.4,45.1-45.6,66.4c9.7,11.8,8.8,33.1,15.5,33.1
			c5.6,0,14.1-13.9,18.7-23.6c0.7-1.4,1.6-2.1,2.5-2.1c0.7,0,1.4,0.5,1.4,1.6c0,0.7-0.2,1.4-0.5,2.1c-5.1,12.7-14.1,33.5-27.3,33.5
			c-13,0-12.7-17.1-20.1-36.8c-3.2,14.3-5.8,26.4-6.7,31.5C12,117.5,9.5,119.1,6.7,119.1z"/>
	</g>
	<g enable-background="new    ">
		<path fill="#D1A72B" d="M86.7,89.7c-2.1,0-4.4-2.3-4.4-6.5c0-4.4,1.2-9.3,2.1-13.2c-6.2,0-18.3,0.2-18.3-3c0-4.9,9.5-5.1,20.1-5.1
			c2.1-8.1,4.4-19.4,8.3-19.4c1.9,0,3.7,2.1,3.7,5.1c0,4.4-2.5,9.9-3.2,14.1c7.9,0,17.6-0.7,17.6,2.3c0,4.4-9.7,5.6-19.4,5.8
			c-0.9,4.6-1.9,9.7-2.8,15.7C89.7,88.6,88.4,89.7,86.7,89.7z"/>
	</g>
	<g enable-background="new    ">
		<path fill="#444445" d="M124.7,36.1c-3.9,0-9.3-6.2-9.3-11.8c0-7.2,15.7-23.6,37.7-23.6c21.5,0,38.6,18.5,38.6,38.9
			c0,18.5-11.6,37.9-36.5,40c7.9,11.6,8.1,28.7,14.1,28.7c5.6,0,14.1-13.9,18.7-23.6c0.7-1.4,1.6-2.1,2.5-2.1c0.7,0,1.4,0.5,1.4,1.6
			c0,0.7-0.2,1.4-0.5,2.1c-5.1,12.7-14.1,33.5-27.1,33.5c-12.7,0-12.7-16-19.4-34.7c-3.7,13-6.7,24.1-7.4,29.4
			c-0.5,3-3.2,4.4-5.8,4.4c-3.2,0-6.7-2.1-6.7-6.7c0-3.9,3.5-21.7,6-32.4c-1.4-0.9-2.1-2.5-2.1-3.9c0-2.1,1.4-4.4,4.6-5.3
			c3.9-14.6,8.8-30.5,14.6-49.7c0.9-3.2,4.2-4.9,7.4-4.9c3.9,0,7.6,2.1,7.6,5.1c0,0.2,0,0.9-0.2,1.2c-4.2,15.5-9.7,33.8-14.3,50.4
			c0.9,0.5,2.1,1.4,2.8,2.1c16.9-4.9,27.1-23.1,27.1-41.9c0-6.9-1.4-13.9-4.4-20.6c-3.9-2.1-8.3-2.8-12.5-2.8
			c-13.2,0-26.4,8.8-33.1,24.1C127.2,35.4,126.1,36.1,124.7,36.1z"/>
	</g>
</g>
<g>
</g>
<g>
</g>
<g>
</g>
<g>
</g>
<g>
</g>
<g>
</g>
<g>
</g>
<g>
</g>
<g>
</g>
<g>
</g>
<g>
</g>
<g>
</g>
<g>
</g>
<g>
</g>
<g>
</g>
</svg>
